<?xml version="1.0" encoding="UTF-8"?><svg id="_レイヤー_2" xmlns="http://www.w3.org/2000/svg" viewBox="0 0 317.56 46.46"><defs><style>.cls-1{fill:#bf9c50;}.cls-2{fill:#231815;}</style></defs><g id="rogo"><g><g><path class="cls-1" d="m71.92,7.62v-2.78c0-.82-.69-1.48-1.54-1.48h-2.89c-.85,0-1.54.67-1.54,1.48v2.78c0,.26.07.5.19.71l-2.9,3.56c-.05,0-.11,0-.16,0h-6.98c-.28,0-.54.08-.76.2l-5.33-4.92s.02-.09.02-.14V1.37c0-.76-.64-1.37-1.43-1.37h-5.87c-.79,0-1.43.62-1.43,1.37v5.65s0,.03,0,.04l-2.95,2.98s-.08,0-.12,0h-2.89c-.85,0-1.54.67-1.54,1.48v2.78c0,.82.69,1.48,1.54,1.48h2.89c.85,0,1.54-.67,1.54-1.48v-2.78c0-.29-.09-.55-.23-.78l2.5-2.52c.21.11.44.18.69.18h5.87c.23,0,.44-.06.63-.15l5.35,4.95c0,.06-.02.11-.02.17v6.72c0,.31.1.6.28.84.21.58.78,1,1.45,1h6.98c.85,0,1.54-.67,1.54-1.48v-6.72c0-.31-.1-.6-.27-.84-.04-.1-.08-.21-.14-.3l2.86-3.51c.08.01.16.02.24.02h2.89c.85,0,1.54-.67,1.54-1.48Z"/><path class="cls-1" d="m47.39,15.19h-2.89c-.85,0-1.54.67-1.54,1.48v2.78c0,.26.07.5.19.71l-2.9,3.56c-.05,0-.11,0-.16,0h-6.98c-.85,0-1.54.67-1.54,1.48v6.72c0,.82.69,1.48,1.54,1.48h6.98c.85,0,1.54-.67,1.54-1.48v-6.72c0-.28-.08-.55-.23-.77l2.86-3.51c.08.01.16.02.24.02h2.89c.85,0,1.54-.67,1.54-1.48v-2.78c0-.82-.69-1.48-1.54-1.48Z"/><path class="cls-1" d="m64.68,36.13h-4.94c-.22,0-.42.04-.61.12l-3.42-3.96c0-.06.02-.13.02-.2v-2.28c0-.82-.69-1.48-1.54-1.48h-2.37c-.85,0-1.54.67-1.54,1.48v2.28c0,.82.69,1.48,1.54,1.48h2.37c.26,0,.51-.06.72-.17l3.34,3.87c-.03.11-.04.22-.04.34v4.75c0,.82.69,1.48,1.54,1.48h4.94c.85,0,1.54-.67,1.54-1.48v-4.75c0-.82-.69-1.48-1.54-1.48Z"/><path class="cls-1" d="m23.51,7.42h4.28c.85,0,1.54-.67,1.54-1.48V1.82c0-.82-.69-1.48-1.54-1.48h-4.28c-.85,0-1.54.67-1.54,1.48v4.12c0,.82.69,1.48,1.54,1.48Z"/><path class="cls-1" d="m10.96,11.64h3.15c.62,0,1.13-.49,1.13-1.09v-3.03c0-.6-.51-1.09-1.13-1.09h-3.15c-.62,0-1.13.49-1.13,1.09v3.03c0,.6.51,1.09,1.13,1.09Z"/><path class="cls-1" d="m73.37,24.34h-2.89c-.85,0-1.54.67-1.54,1.48v2.78c0,.82.69,1.48,1.54,1.48h2.89c.85,0,1.54-.67,1.54-1.48v-2.78c0-.82-.69-1.48-1.54-1.48Z"/><path class="cls-1" d="m45.67,35.57h-1.87c-.42,0-.77.33-.77.74v1.8c0,.41.35.74.77.74h1.87c.42,0,.77-.33.77-.74v-1.8c0-.41-.35-.74-.77-.74Z"/><path class="cls-1" d="m80.3,19.92h-1.87c-.42,0-.77.33-.77.74v1.8c0,.41.35.74.77.74h1.87c.42,0,.77-.33.77-.74v-1.8c0-.41-.35-.74-.77-.74Z"/><path class="cls-1" d="m30.3,36.77h-6.98c-.3,0-.57.08-.81.22l-5.63-4.2c.1-.19.15-.41.15-.63v-5.79c0-.08,0-.16-.02-.23l2.52-2.04c.1.02.21.04.32.04h6.3c.76,0,1.39-.6,1.39-1.34v-6.06c0-.74-.63-1.34-1.39-1.34h-6.3c-.76,0-1.39.6-1.39,1.34v6.06c0,.14.03.27.07.4l-2.3,1.87c-.22-.11-.47-.18-.73-.18h-6.01c-.11,0-.21.01-.31.03-.02,0-.03.01-.05.01-.08.02-.17.04-.24.08,0,0,0,0,0,0l-3.42-3.96c0-.06.02-.13.02-.2v-2.28c0-.82-.69-1.48-1.54-1.48H1.54c-.85,0-1.54.67-1.54,1.48v2.28c0,.82.69,1.48,1.54,1.48h2.37c.26,0,.51-.06.72-.17l3.34,3.87s0,.01,0,.02c0,.02,0,.04-.01.07-.02.08-.03.17-.03.26v5.78l-1.78,1.99c-.27-.21-.61-.34-.97-.34h-2.89c-.85,0-1.54.67-1.54,1.48v2.78c0,.82.69,1.48,1.54,1.48h2.89c.85,0,1.54-.67,1.54-1.48v-2.56l1.9-2.12c.25.16.54.25.86.25h6.01c.09,0,.19,0,.28-.03l6.02,4.49s0,.1,0,.15v6.72c0,.82.69,1.48,1.54,1.48h6.98c.85,0,1.54-.67,1.54-1.48v-6.72c0-.82-.69-1.48-1.54-1.48Z"/></g><g><rect class="cls-2" x="144.15" y="18.13" width="3.09" height="7.35" transform="translate(167.5 -123.89) rotate(90)"/><path d="m231.47,21.98c2.87-1.49,4.9-4.54,4.9-8.37,0-5.8-2.75-10.64-11.24-10.64h-11.96v10.65h7.77v-3.83h3.41c3.17,0,4.19,1.67,4.19,3.77,0,2.21-1.08,3.77-4.19,3.77h-11.18v22.72h7.77v-15.91h3.71l12.98,15.91h9.69l-15.85-18.06Z"/><path class="cls-2" d="m296.28,2.96h-15.61v26.2h7.65V9.96h8.07c9.03,0,13.39,5.02,13.39,11.48s-4.36,11.42-13.39,11.42h-15.73v7.18h15.61c14.95,0,21.29-8.49,21.29-18.54s-6.34-18.54-21.29-18.54Z"/><rect class="cls-2" x="256.16" y="15.07" width="7.77" height="24.96"/><circle class="cls-1" cx="260.05" cy="7.17" r="4.32"/><path d="m131.98,34.19c.13-.18.24-.37.36-.56.13-.21.27-.42.39-.64.1-.18.2-.37.29-.56.12-.24.24-.48.35-.72.08-.18.16-.37.24-.56.11-.26.2-.53.29-.8.06-.18.13-.36.18-.55.04-.12.06-.25.09-.37.01-.07.02-.13.04-.2h-6.58c-1.51,3.3-4.85,5.51-8.56,5.51-5.19,0-9.41-4.22-9.41-9.41s4.22-9.41,9.41-9.41c1.43,0,2.82.32,4.07.92l-10.55,10.55h8.84l10.7-10.7c-.58-.87-1.24-1.69-1.97-2.42h0c-.36-.37-.74-.71-1.13-1.03-.25-.21-.52-.4-.79-.59-.14-.1-.27-.21-.41-.31-.36-.24-.73-.46-1.11-.68-.06-.03-.12-.07-.18-.11-.4-.22-.81-.41-1.23-.59-.05-.02-.09-.05-.14-.07-.4-.17-.82-.32-1.24-.46-.07-.02-.13-.05-.2-.07-.39-.12-.8-.22-1.21-.31-.1-.02-.2-.05-.3-.07-.39-.08-.79-.13-1.19-.18-.12-.01-.24-.04-.36-.05-.52-.05-1.05-.08-1.58-.08-8.63,0-15.66,7.03-15.66,15.66s7.03,15.66,15.66,15.66c.49,0,.97-.03,1.45-.07.19-.02.39-.05.58-.07.27-.03.54-.07.8-.12.25-.05.49-.1.74-.15.19-.04.37-.09.55-.14.29-.08.57-.16.85-.25.08-.03.17-.06.25-.09,1.48-.53,2.87-1.27,4.12-2.2.06-.04.11-.08.17-.13.28-.21.55-.44.82-.67.07-.06.14-.13.21-.19.25-.23.5-.46.74-.71.07-.07.13-.14.19-.21.41-.44.79-.91,1.15-1.39.1-.13.2-.25.29-.39Z"/><g><path class="cls-2" d="m190.22,33.04h-8.07c-8.17,0-12.51-4.12-13.26-9.69h-7.83c.74,9.36,7.18,16.69,21.21,16.69h15.61v-18.54h-7.65v11.54Z"/><path class="cls-2" d="m182.26,2.96c-14.02,0-20.47,7.47-21.21,16.69h7.85c.8-5.46,5.14-9.51,13.24-9.51h15.73V2.96h-15.61Z"/></g></g></g></g></svg>